<?xml version="1.0" encoding="UTF-8" standalone="no"?>
<!-- Created with Inkscape (http://www.inkscape.org/) -->

<svg
   xmlns:dc="http://purl.org/dc/elements/1.1/"
   xmlns:cc="http://creativecommons.org/ns#"
   xmlns:rdf="http://www.w3.org/1999/02/22-rdf-syntax-ns#"
   xmlns:svg="http://www.w3.org/2000/svg"
   xmlns="http://www.w3.org/2000/svg"
   version="1.0"
   width="400"
   height="120"
   id="svg3305">
  <metadata
     id="metadata3068">
    <rdf:RDF>
      <cc:Work
         rdf:about="">
        <dc:format>image/svg+xml</dc:format>
        <dc:type
           rdf:resource="http://purl.org/dc/dcmitype/StillImage" />
        <dc:title></dc:title>
      </cc:Work>
    </rdf:RDF>
  </metadata>
  <defs
     id="defs3307" />
  <g
     id="g3083">
    <path
       d="m 390.00003,59.999999 a 190,53.133276 0 1 1 -380.000008,0 190,53.133276 0 1 1 380.000008,0 z"
       id="path3128"
       style="fill:#ef6708;fill-opacity:1;fill-rule:evenodd;stroke:none" />
    <path
       d="m 255.75792,39.845587 c -3.36419,-0.500975 -6.87597,-0.248998 -9.84844,0.607203 -4.57485,0.57738 -3.60199,6.204064 -5.12803,9.472313 l 0.23132,0.736243 c 0.97377,0.442548 1.74612,-0.118907 2.52949,-0.397733 0.47742,-0.41421 0.92392,0.257911 0.84174,0.646931 -1.70605,6.908672 -4.20144,13.53816 -5.16236,20.745085 0.32078,2.938401 3.08403,4.682018 4.79457,6.761456 6.43543,2.053793 12.53002,-1.463188 17.63299,-5.637455 5.35532,-5.752507 9.42688,-15.037813 6.64203,-23.162504 -1.70383,-5.9704 -6.92632,-8.93656 -12.53331,-9.771539 z m -2.24696,8.912627 c 1.60056,0.335696 3.09626,1.133151 4.13556,2.358713 2.24275,2.691744 1.88656,6.342898 0.99639,9.446032 -1.38242,3.363285 -4.06412,7.19237 -7.96057,7.589716 0.86243,-5.430514 2.68732,-10.639902 3.69605,-16.097453 -0.14232,-2.117729 -2.19626,-2.763898 -3.77801,-3.382945 0.95582,-0.143715 1.95022,-0.115485 2.91058,0.08594 z"
       id="path2995"
       style="fill:#ffffff;fill-opacity:1;fill-rule:nonzero;stroke:none" />
    <path
       d="m 362.46005,42.887197 c -1.89367,11.091368 -4.93855,21.441043 -7.9105,31.795532 -0.0669,1.03553 0.5084,2.065229 -0.0934,3.066129 -2.86363,1.305706 -6.69751,0.343733 -9.28031,-1.278425 -1.95044,-5.927301 -2.15426,-12.412323 -3.86377,-18.315759 l -4.43645,18.452319 c -0.39899,1.118425 -1.22965,2.055214 -2.4572,1.977582 -2.31953,-0.307824 -6.17256,-0.149138 -6.86465,-2.930126 2.89511,-11.695615 5.23215,-23.79301 9.31253,-34.769995 0.71471,-2.138747 2.83879,-0.982502 4.33107,-1.138659 2.73746,0.923739 5.99541,1.995485 6.57758,5.446974 1.07233,3.243349 1.66541,6.667772 2.40099,9.976489 l 0.46094,-0.452705 c 1.09295,-5.026365 1.99875,-10.173119 3.78386,-14.677575 2.44201,-1.224942 5.35185,0.371378 7.51003,1.353056 l 0.52926,1.495163"
       id="path2997"
       style="fill:#ffffff;fill-opacity:1;fill-rule:nonzero;stroke:none" />
    <path
       d="m 323.75117,40.055926 c -2.2556,-0.513946 -4.00524,2.481513 -5.881,3.66089 -0.6107,-1.157245 0.2677,-2.642746 -0.39251,-3.7161 -1.21623,-0.496747 -2.67521,-0.576562 -3.83222,-0.245424 -7.2312,2.210814 -11.9391,8.857336 -13.98616,15.764923 -2.36393,7.683751 -2.8359,16.53259 3.42687,22.036486 2.73876,2.262933 7.10058,2.71362 10.27044,1.443078 11.57472,-5.2945 14.62909,-19.236116 13.95411,-31.421419 -0.66135,-2.347903 -0.84424,-4.990649 -2.55063,-7.06936 -0.3442,-0.232783 -0.68664,-0.379647 -1.0089,-0.453074 z m -7.22892,8.412543 c 1.52735,6.28742 -0.25946,14.620211 -4.24679,19.455396 -0.76695,0.687142 -1.71776,1.359189 -2.65737,0.681942 -3.06409,-3.238235 -0.7666,-8.581937 0.44008,-12.260799 1.03595,-3.370884 4.10214,-5.548295 6.46408,-7.876539 z"
       id="path2999"
       style="fill:#ffffff;fill-opacity:1;fill-rule:nonzero;stroke:none" />
    <path
       d="m 299.2957,42.173166 c -0.47799,2.98732 -0.61559,6.501402 -3.26575,7.918689 -4.07406,0.126005 -8.44822,-0.830335 -12.41634,-0.253785 0.6265,0.968384 2.48635,1.2724 2.24758,2.728227 0.24189,1.094532 -1.17884,2.234436 0.10747,2.983927 2.95821,0.271284 6.10215,-0.313087 8.96902,0.785662 0.72841,2.803978 -0.81776,5.957345 -2.03132,8.436414 l -1.32923,0.582047 -8.62885,-0.323545 -0.57478,0.486465 c -0.44309,1.314647 -1.29796,2.921174 -0.67339,4.350402 l 9.37567,0.452779 c 0.89318,0.616853 0.64111,1.777411 0.66163,2.722248 -0.33249,2.100177 -1.00981,3.865539 -2.11288,5.499297 L 287.7914,79.07249 274.90575,78.6027 c -2.04939,-0.746741 -3.45728,-3.364189 -3.91066,-5.348608 l 1.48041,-7.567072 c -0.87186,-0.859345 -1.87229,-1.727561 -1.53167,-3.183592 1.0189,-2.606326 0.58245,-7.085274 4.25327,-7.110623 1.04845,-1.32686 1.01145,-3.426361 1.57663,-5.142065 -0.56779,-1.009465 -2.49243,-0.29095 -2.55734,-1.810467 1.32536,-2.909756 0.38114,-8.347688 4.45163,-8.485441 5.91998,-0.285567 12.01412,0.03154 18.08932,0.404468 1.10961,0.122948 2.77758,0.289051 2.53836,1.813866"
       id="path3001"
       style="fill:#ffffff;fill-opacity:1;fill-rule:nonzero;stroke:none" />
    <path
       d="m 232.94125,39.399708 c -2.00262,-0.124453 -3.63722,2.779687 -5.53839,3.553089 -0.26394,-1.098362 0.23047,-2.369586 -0.27446,-3.445038 -1.2455,-0.906177 -2.8202,-0.326506 -4.13522,-0.214306 -9.78893,3.421303 -13.60052,13.043448 -15.08406,22.954826 -0.69687,5.913661 0.85373,12.654019 6.2967,15.765878 3.73026,2.188319 8.02655,1.241919 11.45985,-0.690393 9.46678,-6.483584 11.79496,-19.160667 11.25644,-30.328713 -0.53864,-2.409104 -0.86982,-4.960537 -2.51574,-6.951924 -0.50732,-0.411323 -1.00298,-0.614694 -1.46512,-0.643419 z m -6.81714,8.873688 c 1.57851,6.114684 -0.37302,14.031333 -3.92095,18.954801 -0.85112,0.718255 -1.79454,1.497392 -2.82901,0.902881 -1.22704,-1.177012 -0.54216,-9.692696 0.0477,-11.521043 1.2305,-3.447499 3.56078,-6.13768 6.70199,-8.336639 z"
       id="path3005"
       style="fill:#ffffff;fill-opacity:1;fill-rule:nonzero;stroke:none" />
    <path
       d="m 199.73394,42.514171 c -2.04877,8.754213 -5.07023,16.874465 -6.76776,25.877716 l 0.32755,0.459923 c 3.31934,0.393942 6.60168,-0.102987 9.78938,0.426356 0.86653,1.651547 -0.31566,3.417552 -0.55778,5.17133 -0.48629,1.512135 -0.84374,3.064384 -2.08026,4.124763 l -1.98864,0.474627 -11.05131,-0.433074 c -2.50602,-1.562082 -4.35825,-4.970466 -4.98021,-7.802811 1.91481,-10.737934 5.28587,-20.580011 8.48369,-30.475458 2.34006,-0.986378 5.10269,0.08764 7.58262,0.745149 0.46838,0.367332 1.26596,0.669103 1.24272,1.431479"
       id="path3007"
       style="fill:#ffffff;fill-opacity:1;fill-rule:nonzero;stroke:none" />
    <path
       d="m 184.47385,41.97416 c 0.0721,2.783966 -1.06897,5.270009 -2.09907,7.601475 l -1.61681,0.532287 c -4.00114,-0.32479 -8.05231,-0.41093 -11.96649,-0.288454 0.53568,0.888057 1.85393,1.099465 2.36625,2.176195 0.0697,1.239629 -1.09875,2.71058 -0.0438,3.489132 3.00595,0.257279 5.91845,-0.309223 8.97515,0.78116 0.71494,1.393614 -0.0845,3.289341 -0.3671,4.801083 -0.46782,1.498619 -0.93467,3.030828 -2.12556,4.11692 -3.18742,0.162466 -6.43668,-0.236057 -9.62763,-0.09202 -1.07528,1.041498 -1.15223,2.653426 -1.54775,4.094379 0.18511,1.090286 1.54781,0.548564 2.2939,0.787946 2.59206,0.138874 5.18691,-0.353378 7.80063,0.419735 1.16821,2.513585 -0.37227,5.52647 -1.34701,7.724934 l -1.2392,0.792573 -13.3571,-0.131416 c -2.38404,-0.575187 -3.96522,-3.212595 -4.55336,-5.517763 0.30584,-2.485759 0.97894,-5.10402 1.48524,-7.636407 -0.32402,-1.108752 -2.03547,-1.036195 -1.51286,-2.52534 0.29276,-2.551512 0.79684,-5.030815 2.06934,-7.003975 0.74626,-0.805463 2.00967,-0.0087 2.61969,-1.271064 0.0455,-1.769994 1.514,-3.234682 0.77735,-5.017487 -1.1045,-0.06191 -2.53154,-0.303283 -2.32409,-1.746703 1.08358,-2.928204 0.75149,-7.49493 4.2897,-8.092391 5.7841,-0.315764 11.72216,-0.01785 17.69727,0.331059 1.22863,0.341829 3.25944,0.02597 3.3531,1.67414"
       id="path3011"
       style="fill:#ffffff;fill-opacity:1;fill-rule:nonzero;stroke:none" />
    <path
       d="m 85.168441,30.83917 c -1.819714,7.826518 -4.562389,15.098316 -6.430277,22.928005 l -5.531893,19.709072 c -0.114371,1.326741 0.927087,2.749876 -0.353844,3.831404 -2.927517,0.970833 -6.983941,0.400478 -9.556573,-1.217872 l -0.96427,-1.978486 C 60.856587,65.821408 59.411257,57.490755 57.955021,49.197289 l -0.569924,0.889393 -6.506477,26.529052 c -0.366309,1.195973 -1.60301,1.471633 -2.67828,1.632508 -2.835187,-0.08886 -6.694219,-0.177664 -8.042006,-2.768734 l 0.01489,-1.95586 c 3.379182,-14.731382 7.281125,-29.172485 11.795266,-43.197133 0.321499,-0.934925 0.996313,-1.887179 2.027325,-2.067628 3.736157,-0.05405 7.346923,1.408432 10.062147,3.517095 2.031354,5.603682 3.338964,11.335007 4.260441,17.129482 l 0.489183,-0.491694 5.721151,-18.176181 c 0.415562,-1.099829 1.324644,-1.996651 2.583028,-2.081581 2.727102,0.275956 6.8559,-0.06406 8.056692,2.683162"
       id="path3015"
       style="fill:#ffffff;fill-opacity:1;fill-rule:nonzero;stroke:none" />
    <path
       d="m 157.67747,43.092586 c -2.24371,8.20583 -6.77372,15.755363 -14.73781,19.522524 2.40275,5.111068 5.69396,10.002719 7.63365,15.196296 -0.45873,3.00848 -3.93972,3.884312 -6.16104,4.839999 -2.99645,0.761398 -3.18575,-3.077718 -4.58169,-4.651559 l -4.69181,-9.600945 -0.54521,0.900413 c -0.61479,3.266641 -1.23737,6.468438 -2.41551,9.35243 -1.49082,1.25698 -3.96671,0.02649 -5.77389,-0.261725 -1.15015,-0.608958 -2.90452,-0.591731 -3.20141,-2.215997 l 8.17401,-31.18962 c 0.65802,-1.687389 0.78987,-3.634029 2.02418,-4.918694 2.52315,-0.649472 6.17576,-0.147734 8.27019,1.473463 0.65836,2.70942 -1.1256,5.020715 -1.47868,7.695471 -0.46262,1.433797 -1.12247,2.788905 -1.35865,4.367714 l 0.30033,0.454109 c 6.07526,-2.368512 7.85061,-8.511046 10.53503,-13.578378 1.43068,-0.751634 3.32076,0.10122 4.80691,0.398495 1.27568,0.437973 2.53966,1.013165 3.2014,2.216004"
       id="path3017"
       style="fill:#ffffff;fill-opacity:1;fill-rule:nonzero;stroke:none" />
    <path
       d="m 125.02986,44.0628 c 0.52601,2.862525 0.66145,6.580921 -1.40198,8.931859 -2.09255,1.491498 -4.84233,1.4423 -7.14245,0.593124 -1.51118,-1.458998 1.50572,-4.60405 -1.40327,-4.686365 -3.62583,3.284743 -4.5611,8.228115 -5.86929,12.942086 0.0103,2.090436 -0.94784,4.531266 0.55308,6.125506 3.09901,0.172008 2.27738,-3.688524 4.53802,-4.817862 2.01517,-1.05931 4.88371,-1.318176 6.85089,0.174061 0.91956,1.645131 0.036,4.047619 -0.43246,5.761129 -1.66672,4.027011 -4.68001,8.147386 -9.20817,9.305409 -2.30319,0.695338 -5.02674,0.803287 -7.39903,-0.233266 -6.740284,-4.837953 -5.247247,-13.631519 -3.72285,-21.262265 2.41,-7.727021 7.14193,-16.679717 16.17695,-17.478917 3.4683,-0.481464 7.29651,0.964099 8.46056,4.645501"
       id="path3019"
       style="fill:#ffffff;fill-opacity:1;fill-rule:nonzero;stroke:none" />
    <path
       d="m 99.787441,42.657523 -0.938312,4.129662 -8.365772,30.905797 c -2.64195,1.823068 -6.869723,0.594647 -9.298486,-1.134533 -1.349709,-1.789744 0.33544,-3.848562 0.256995,-5.932962 2.675677,-9.868842 5.102008,-20.119468 8.778755,-29.850721 2.224017,-1.73832 5.765546,-0.902682 8.343242,0.162733 0.522887,0.417983 1.35171,0.912304 1.223578,1.720024"
       id="path3021"
       style="fill:#ffffff;fill-opacity:1;fill-rule:nonzero;stroke:none" />
    <path
       d="m 366.96226,44.211568 c 0.0142,-1.744276 1.30541,-3.028043 2.93137,-3.008094 1.60511,0.0061 2.87113,1.340524 2.84908,3.08351 -0.0318,1.749067 -1.32564,3.022547 -2.90858,2.99817 -1.61631,-0.0081 -2.89364,-1.332533 -2.87187,-3.073586 z m 2.86198,3.697708 c 1.92475,0.03001 3.61051,-1.4884 3.65785,-3.621099 0.0227,-2.105457 -1.63352,-3.661384 -3.56953,-3.693388 -1.93885,-0.01466 -3.63234,1.492543 -3.65746,3.619178 -0.0404,2.090339 1.61477,3.646265 3.56914,3.695309 z m -0.68869,-3.375089 0.69937,-0.01364 1.02589,1.870844 0.70693,-4.72e-4 -1.10427,-1.886377 c 0.56586,-0.06841 1.05727,-0.399308 1.05869,-1.159558 0.0114,-0.798137 -0.47072,-1.192517 -1.43449,-1.234524 l -1.56918,0.01012 -0.0455,4.224391 0.63662,0.0051 0.0261,-1.815536 z m 0,-0.572118 0.0404,-1.290264 0.80843,0.0028 c 0.42207,0.01006 0.89801,0.125688 0.89239,0.653496 0.0102,0.644691 -0.49374,0.673103 -1.01822,0.665527 l -0.72267,-0.03206"
       id="path3023"
       style="fill:#ffffff;fill-opacity:1;fill-rule:nonzero;stroke:none" />
  </g>
</svg>
