<?xml version="1.0" encoding="UTF-8" standalone="no"?>
<svg
   id="Netflix_Symbol_RGB"
   viewBox="0 0 999.99995 213.68803"
   version="1.1"
   sodipodi:docname="Netflix_N.svg"
   width="1000"
   height="213.688"
   inkscape:version="1.1.1 (3bf5ae0d25, 2021-09-20)"
   xmlns:inkscape="http://www.inkscape.org/namespaces/inkscape"
   xmlns:sodipodi="http://sodipodi.sourceforge.net/DTD/sodipodi-0.dtd"
   xmlns="http://www.w3.org/2000/svg"
   xmlns:svg="http://www.w3.org/2000/svg"
   xmlns:rdf="http://www.w3.org/1999/02/22-rdf-syntax-ns#"
   xmlns:cc="http://creativecommons.org/ns#"
   xmlns:dc="http://purl.org/dc/elements/1.1/">
  <metadata
     id="metadata12">
    <rdf:RDF>
      <cc:Work
         rdf:about="">
        <dc:format>image/svg+xml</dc:format>
        <dc:type
           rdf:resource="http://purl.org/dc/dcmitype/StillImage" />
      </cc:Work>
    </rdf:RDF>
  </metadata>
  <sodipodi:namedview
     pagecolor="#ffffff"
     bordercolor="#666666"
     borderopacity="1"
     objecttolerance="10"
     gridtolerance="10"
     guidetolerance="10"
     inkscape:pageopacity="0"
     inkscape:pageshadow="2"
     inkscape:window-width="1366"
     inkscape:window-height="705"
     id="namedview10"
     showgrid="false"
     inkscape:zoom="0.5"
     inkscape:cx="485"
     inkscape:cy="147"
     inkscape:window-x="-8"
     inkscape:window-y="-8"
     inkscape:window-maximized="1"
     inkscape:current-layer="Netflix_Symbol_RGB"
     inkscape:document-rotation="0"
     showguides="false"
     inkscape:pagecheckerboard="0" />
  <defs
     id="defs4">
    <style
       id="style2">.cls-1{fill:#e50914;}</style>
  </defs>
  <g
     id="g23163"
     transform="scale(0.8935736)">
    <path
       d="M 0,120.15478 H 26.93106 V 42.64167 l 53.86212,77.51311 h 26.93106 V 8.3e-4 H 80.79318 V 77.3413 L 27.1037,8.3e-4 H 0 Z"
       id="path9182"
       style="font-weight:bold;font-size:172.635px;line-height:1.25;font-family:'Netflix Sans';-inkscape-font-specification:'Netflix Sans Bold';letter-spacing:-3.41px;opacity:1;fill:#e61b24;fill-opacity:1;stroke-width:4.31589" />
    <path
       d="m 127.44362,120.15478 h 89.59756 V 95.98588 H 155.41049 V 71.47171 h 58.52326 V 47.30282 H 155.41049 V 24.16973 h 60.76752 V 8.3e-4 h -88.73439 z"
       id="path9184"
       style="font-weight:bold;font-size:172.635px;line-height:1.25;font-family:'Netflix Sans';-inkscape-font-specification:'Netflix Sans Bold';letter-spacing:-3.41px;opacity:1;fill:#e61b24;fill-opacity:1;stroke-width:4.31589" />
    <path
       d="M 294.37485,120.15478 V 24.34236 h 38.15233 V 8.3e-4 H 228.08301 v 24.34153 h 38.15233 v 95.81242 z"
       id="path9186"
       style="font-weight:bold;font-size:172.635px;line-height:1.25;font-family:'Netflix Sans';-inkscape-font-specification:'Netflix Sans Bold';letter-spacing:-3.41px;opacity:1;fill:#e61b24;fill-opacity:1;stroke-width:4.31589" />
    <path
       d="m 350.23145,120.15478 h 28.1395 V 73.8886 h 56.79692 V 49.89234 H 378.37095 V 24.16973 h 58.86854 V 8.3e-4 h -87.00804 z"
       id="path9188"
       style="font-weight:bold;font-size:172.635px;line-height:1.25;font-family:'Netflix Sans';-inkscape-font-specification:'Netflix Sans Bold';letter-spacing:-3.41px;opacity:1;fill:#e61b24;fill-opacity:1;stroke-width:4.31589" />
    <path
       d="M 541.0357,95.81325 H 482.5124 V 8.3e-4 h -28.1395 v 120.15395 h 86.6628 z"
       id="path9190"
       style="font-weight:bold;font-size:172.635px;line-height:1.25;font-family:'Netflix Sans';-inkscape-font-specification:'Netflix Sans Bold';letter-spacing:-3.41px;opacity:1;fill:#e61b24;fill-opacity:1;stroke-width:4.31589" />
    <path
       d="M 582.217,120.15478 V 8.3e-4 h -28.1395 v 120.15395 z"
       id="path9192"
       style="font-weight:bold;font-size:172.635px;line-height:1.25;font-family:'Netflix Sans';-inkscape-font-specification:'Netflix Sans Bold';letter-spacing:-3.41px;opacity:1;fill:#e61b24;fill-opacity:1;stroke-width:4.31589" />
    <path
       d="m 595.9461,120.15478 h 32.9732 l 26.9311,-41.4324 28.4848,41.4324 H 717.999 L 673.9771,57.83355 713.5105,8.3e-4 H 680.3646 L 657.5768,36.25418 633.9258,8.3e-4 h -33.4912 l 39.1881,57.48745 z"
       id="path9194"
       style="font-weight:bold;font-size:172.635px;line-height:1.25;font-family:'Netflix Sans';-inkscape-font-specification:'Netflix Sans Bold';letter-spacing:-3.41px;opacity:1;fill:#e61b24;fill-opacity:1;stroke-width:4.31589" />
    <path
       style="opacity:1;fill:#38429b;fill-opacity:1;stroke-width:1.17982"
       d="m 633.6843,154.22461 c 0,46.89595 41.6452,84.91407 93.0156,84.91406 7.3062,-1e-5 14.4057,-0.56933 21.2266,-1.67773 v -83.23633 z"
       id="path10844" />
    <path
       style="opacity:1;fill:#49c7ef;fill-opacity:1;stroke-width:1.17982"
       d="m 755.903,0 v 235.8789 c 37.0589,-8.75409 63.8106,-35.36671 63.8106,-81.65429 V 0 Z"
       id="ellipse6131" />
    <path
       style="opacity:1;fill:#b3d236;fill-opacity:1;stroke-width:1.04928"
       d="m 916.3445,0 v 162.45117 l 46.1562,70.08398 h 95.7012 l -55.8555,-84.80859 c 23.5987,-13.32752 38.8106,-39.19889 38.8106,-69.06445 C 1041.157,35.08306 1006.2765,0 950.9948,0 Z"
       id="path10866" />
    <path
       style="opacity:1;fill:#35ad49;fill-opacity:1;stroke-width:1.04928"
       d="m 837.1023,0 v 232.53515 h 71.2656 V 0 Z"
       id="rect9466"
       sodipodi:nodetypes="ccccc" />
    <path
       id="rect10600"
       style="opacity:1;fill:#f75a28;fill-opacity:1;stroke-width:1.07615"
       d="m 1091.602,177.75091 c 15.235,0 27.5,12.265 27.5,27.5 0,15.235 -12.265,27.5 -27.5,27.5 -15.235,0 -27.5,-12.265 -27.5,-27.5 0,-15.235 12.265,-27.5 27.5,-27.5 z" />
  </g>
</svg>
